<svg width="93" height="71" fill="none" xmlns="http://www.w3.org/2000/svg">
                        <path d="M16.838 58.323a5 5 0 100-10 5 5 0 000 10z" fill="#6ECFDD"></path>
                        <path opacity="0.6" d="M16.838 70.515a5 5 0 100-10 5 5 0 000 10z" fill="#6ECFDD"></path>
                        <path opacity="0.4" d="M5 58.515a5 5 0 100-10 5 5 0 000 10z" fill="#6ECFDD"></path>
                        <path
                            d="M5 70.515a5 5 0 100-10 5 5 0 000 10zM40.838 58.323a5 5 0 100-10 5 5 0 000 10zM40.838 70.515a5 5 0 100-10 5 5 0 000 10z"
                            fill="#6ECFDD"></path>
                        <path opacity="0.6" d="M29 58.515a5 5 0 100-10 5 5 0 000 10z" fill="#6ECFDD"></path>
                        <path opacity="0.4" d="M29 70.515a5 5 0 100-10 5 5 0 000 10z" fill="#6ECFDD"></path>
                        <path d="M64.838 58.323a5 5 0 100-10 5 5 0 000 10zM64.838 70.515a5 5 0 100-10 5 5 0 000 10z"
                            fill="#6ECFDD"></path>
                        <path opacity="0.4" d="M53 58.515a5 5 0 100-10 5 5 0 000 10z" fill="#6ECFDD"></path>
                        <path d="M53 70.515a5 5 0 100-10 5 5 0 000 10z" fill="#6ECFDD"></path>
                        <path opacity="0.4" d="M64.838 34.323a5 5 0 100-10 5 5 0 000 10z" fill="#6ECFDD"></path>
                        <path d="M64.838 46.515a5 5 0 100-10 5 5 0 000 10zM53 34.515a5 5 0 100-10 5 5 0 000 10z"
                            fill="#6ECFDD"></path>
                        <path opacity="0.6"
                            d="M53 46.515a5 5 0 100-10 5 5 0 000 10zM76 10.515a5 5 0 100-10 5 5 0 000 10z"
                            fill="#6ECFDD"></path>
                        <path opacity="0.4" d="M76 22.515a5 5 0 100-10 5 5 0 000 10z" fill="#6ECFDD"></path>
                        <path d="M87.838 58.323a5 5 0 100-10 5 5 0 000 10z" fill="#6ECFDD"></path>
                        <path opacity="0.4"
                            d="M87.838 70.515a5 5 0 100-10 5 5 0 000 10zM76 58.515a5 5 0 100-10 5 5 0 000 10z"
                            fill="#6ECFDD"></path>
                        <path opacity="0.6" d="M76 70.515a5 5 0 100-10 5 5 0 000 10z" fill="#6ECFDD"></path>
                    </svg>