<svg width="51" height="44" fill="none" xmlns="http://www.w3.org/2000/svg">
                        <path
                            d="M43.207 44c1.458 0 2.64-1.193 2.64-2.665v-6.28l-.189.127a2.847 2.847 0 01-1.628.506c-.752 0-1.468-.29-2.013-.813a2.921 2.921 0 01-.886-1.889 69.815 69.815 0 01-3.937-.478v8.827c0 1.472 1.181 2.665 2.64 2.665h3.373zM31.065 44c1.458 0 2.64-1.193 2.64-2.665v-9.433c-.108-.018-.215-.045-.314-.063a72.079 72.079 0 01-4.008-.949 63.74 63.74 0 01-4.33-1.328v11.773c0 1.472 1.18 2.665 2.639 2.665h3.373zM18.915 44c1.458 0 2.64-1.193 2.64-2.665v-13.1a7.71 7.71 0 01-.627-.272 51.924 51.924 0 01-7.239-3.813c-.268-.171-.537-.343-.796-.515v17.7c0 1.472 1.181 2.665 2.64 2.665h3.382zM3.4 44h3.373c1.458 0 2.64-1.193 2.64-2.665V21.06a25.57 25.57 0 01-1.038-.885c-2.264-1.997-4.188-4.183-5.727-6.487a28.65 28.65 0 01-1.897-3.316v30.963C.761 42.807 1.941 44 3.4 44z"
                            fill="#B6E7EE"></path>
                        <path
                            d="M1.128 7.11c.17.506.366 1.003.572 1.491.108.253.224.515.34.777.01.018.018.036.018.045.269.57.564 1.139.877 1.699.313.56.653 1.111 1.029 1.662.456.687.948 1.365 1.476 2.024.108.136.215.262.322.398.215.262.439.524.662.777.117.126.224.253.34.388a32.86 32.86 0 002.64 2.602 39.917 39.917 0 003.48 2.729c.135.09.269.19.403.28.134.09.268.18.403.28.277.18.546.361.832.542.402.262.823.515 1.243.759.564.334 1.128.66 1.71.967.143.081.286.153.438.235.734.388 1.476.759 2.237 1.111.456.217.921.425 1.387.623 1.127.488 2.29.949 3.48 1.374.188.072.385.135.573.198a64.284 64.284 0 006.11 1.762l.493.109a71.77 71.77 0 004.957.94h.009c.206.035.402.063.617.09l.188.027c.152.018.304.045.456.063l.188.027c.18.018.358.045.537.072.036.01.054.01.09.01l.662.08c.009 0 .017 0 .026.01.215.018.421.045.627.072a.366.366 0 00.098.01c.197.017.403.044.609.062.018 0 .035.01.044.01.457.044.913.08 1.378.117v1.238c0 .786.636 1.337 1.324 1.337.251 0 .502-.072.743-.235l1.083-.741 4.554-3.126c.77-.524.778-1.653.018-2.196l-5.637-4.02a1.282 1.282 0 00-.752-.244c-.689 0-1.324.551-1.324 1.337v1.292a68.749 68.749 0 01-5.52-.668 62.391 62.391 0 01-3.48-.669 50.447 50.447 0 01-2.56-.633 54.983 54.983 0 01-6.102-2.014 48.923 48.923 0 01-3.48-1.536 44.884 44.884 0 01-4.206-2.35c-1.637-1.047-3.131-2.159-4.456-3.333-1.735-1.527-3.194-3.298-4.59-5.132C6.362 7.246 5.637 3.424 5.37 1.391A1.588 1.588 0 003.803 0H1.584C.662 0-.071.795.009 1.726c.108 1.418.367 2.828.76 4.21.1.388.233.786.359 1.174z"
                            fill="#6ECFDD"></path>
                    </svg>