 <svg width="70" height="70" fill="none" xmlns="http://www.w3.org/2000/svg">
                        <g clip-path="url(#greenCircle_svg__clip0)">
                            <path d="M0 35C0 15.67 15.67 0 35 0s35 15.67 35 35-15.67 35-35 35S0 54.33 0 35z"
                                fill="#fff"></path>
                            <path
                                d="M21.883 28.01c.276-.529.585-1.039.924-1.528L14.99 6.293a26.5 26.5 0 00-2.196 1.655A34.927 34.927 0 00.383 40.156l10.178.427a26.835 26.835 0 0010.213-1.563 14.776 14.776 0 011.11-11.01z"
                                fill="#69CDA4"></path>
                            <path opacity="0.5"
                                d="M37.846 20.267c.466-1.809.74-3.661.818-5.527A26.791 26.791 0 0034.996 0a34.838 34.838 0 00-20.014 6.265v.043L22.8 26.49a14.924 14.924 0 0115.046-6.223z"
                                fill="#69CDA4"></path>
                            <path opacity="0.5"
                                d="M62.004 12.787A34.873 34.873 0 0039.211.27a30.362 30.362 0 012.061 21.105c.242.107.49.206.711.334a14.921 14.921 0 017.623 16.084 14.929 14.929 0 01-13.21 11.934c6.745 5.819 15.37 8.999 24.28 8.95a34.963 34.963 0 001.328-45.89z"
                                fill="#69CDA4"></path>
                            <path
                                d="M10.547 44.242a30.43 30.43 0 0017.69-4.767 36.685 36.685 0 0013.609 14.158 36.71 36.71 0 0018.964 5.115 33.582 33.582 0 01-3.497 3.303 34.989 34.989 0 01-33.011 6.236 34.985 34.985 0 01-14.65-9.272A34.96 34.96 0 011.259 43.85l9.29.39z"
                                fill="#69CDA4"></path>
                        </g>
                        <defs>
                            <clipPath id="greenCircle_svg__clip0">
                                <path d="M0 35C0 15.67 15.67 0 35 0s35 15.67 35 35-15.67 35-35 35S0 54.33 0 35z"
                                    fill="#fff"></path>
                            </clipPath>
                        </defs>
                    </svg>