<svg width="70" height="70" fill="none" xmlns="http://www.w3.org/2000/svg">
                        <g clip-path="url(#purpleCircle_svg__clip0)">
                            <path d="M0 35C0 15.67 15.67 0 35 0s35 15.67 35 35-15.67 35-35 35S0 54.33 0 35z"
                                fill="#fff"></path>
                            <path opacity="0.5"
                                d="M69.619 29.822A34.839 34.839 0 0058.237 8.813a30.278 30.278 0 01-5.586 13.223 31.41 31.41 0 01-4.48 4.805l2.733 3.44a4.573 4.573 0 01.669 4.525l-4.559 11.586a4.527 4.527 0 01-1.632 2.054 36.22 36.22 0 0020.47 3.016 34.79 34.79 0 003.767-21.64zM24.654 21.44a4.54 4.54 0 011.948-.762l12.338-1.831a4.562 4.562 0 014.199 1.673l2.782 3.505a26.581 26.581 0 003.796-4.13A26.652 26.652 0 0054.894 6.25a34.914 34.914 0 00-33.073-3.656l2.696 18.143c.05.23.094.467.137.704z"
                                fill="#B46BAC"></path>
                            <path
                                d="M23.007 23.523c.34-.863.938-1.6 1.712-2.112 0-.244-.087-.481-.123-.718l-2.71-18.15A35.08 35.08 0 003.739 19.35l8.268 6.126a26.817 26.817 0 008.549 4.21l2.451-6.163zM.381 40.086A34.83 34.83 0 012.2 22.747l7.607 5.631a30.348 30.348 0 0019.671 5.947 36.612 36.612 0 0015.618 13.99 36.659 36.659 0 0020.741 3.133 34.977 34.977 0 01-15.516 14.885 35.026 35.026 0 01-40.334-7.005A34.943 34.943 0 01.41 40.086H.38z"
                                fill="#B46BAC"></path>
                        </g>
                        <defs>
                            <clipPath id="purpleCircle_svg__clip0">
                                <path d="M0 35C0 15.67 15.67 0 35 0s35 15.67 35 35-15.67 35-35 35S0 54.33 0 35z"
                                    fill="#fff"></path>
                            </clipPath>
                        </defs>
                    </svg>