<svg width="57" height="53" fill="none" xmlns="http://www.w3.org/2000/svg">
                        <g clip-path="url(#patient-experience-icon_svg__clip0)">
                            <path
                                d="M56.963 51.005l-1.829-9.117c.32-.674.595-1.357.833-2.05h-.064c4.17-12.186-4.6-24.992-17.54-25.62-11.139-.51-20.384 8.37-20.384 19.382 0 10.693 8.724 19.39 19.45 19.4 2.909 0 5.698-.628 8.304-1.858C55.885 53.146 55.099 53 55.326 53a1.668 1.668 0 001.637-1.995zm-10.69-18.507l-3.978 3.47 1.17 5.146a.968.968 0 01-.374.993.957.957 0 01-1.061.045l-4.536-2.705-4.536 2.705a.987.987 0 01-.494.137.977.977 0 01-.567-.182.958.958 0 01-.375-.993l1.17-5.146-3.977-3.47a.967.967 0 01.549-1.694l5.258-.474 2.076-4.845a.968.968 0 011.774 0l2.076 4.845 5.258.474a.962.962 0 01.832.665.944.944 0 01-.265 1.029z"
                                fill="#6ECFDD"></path>
                            <path
                                d="M15.949 25.994c-.01-.009-.028-.018-.037-.027-1.737-1.475-3.237-2.75-4.28-3.998-1.17-1.403-1.71-2.733-1.71-4.18 0-1.413.485-2.715 1.372-3.662a4.651 4.651 0 013.447-1.494c.997 0 1.903.31 2.707.929.403.31.769.692 1.098 1.139.32-.447.686-.83 1.097-1.139.805-.62 1.71-.93 2.707-.93a4.64 4.64 0 013.411 1.458c3.301-1.976 7.16-3.142 11.33-3.215A19.498 19.498 0 0019.598 0C8.789 0 0 8.707 0 19.4c0 2.906.631 5.693 1.866 8.289l-1.83 9.117a1.67 1.67 0 001.958 1.958l9.273-1.822a19.09 19.09 0 003.868 1.348c-.915-4.29-.54-8.506.814-12.296z"
                                fill="#B6E7EE"></path>
                        </g>
                        <defs>
                            <clipPath id="patient-experience-icon_svg__clip0">
                                <path fill="#fff" d="M0 0h57v53H0z"></path>
                            </clipPath>
                        </defs>
</svg>