<svg width="70" height="70" fill="none" xmlns="http://www.w3.org/2000/svg">
                        <path d="M0 35C0 15.67 15.67 0 35 0s35 15.67 35 35-15.67 35-35 35S0 54.33 0 35z"
                            fill="#fff"></path>
                        <path
                            d="M45.344 49.923c-.841 3.11-3.5 3.885-6.16 1.666l-9.13-7.625c-.539.438-1.056.897-1.56 1.379a26.718 26.718 0 00-5.887 8.415l-5.11 11.488a35.013 35.013 0 0025.865 3.659 34.976 34.976 0 0021.19-15.262 36.925 36.925 0 01-19.208-3.72z"
                            fill="#FFB167"></path>
                        <path opacity="0.5"
                            d="M58.283 40.044a26.866 26.866 0 00-10.782-2.32l-2.013 11.561c-.043.208-.086.41-.137.603a36.87 36.87 0 0019.23 3.727 34.308 34.308 0 003.212-6.462 26.788 26.788 0 00-9.51-7.109zM63.976 15.351a34.96 34.96 0 00-9.711-9.58A35 35 0 0027.974.72a35 35 0 00-12.577 5.297 30.797 30.797 0 00-2.3 1.709l10.84 17.835 21.134-7.733c3.472-1.263 5.75.668 5.154 4.308l-2.063 12.02a30.416 30.416 0 0120.846 9.004 34.828 34.828 0 00-5.032-27.809z"
                            fill="#FFB167"></path>
                        <path
                            d="M31.787 38.385A30.413 30.413 0 0019.322 52.3l-4.88 10.957A34.942 34.942 0 014.02 51.237 34.9 34.9 0 0113.06 7.753l17.324 28.498c.446.723.913 1.434 1.402 2.133z"
                            fill="#FFB167"></path>
                    </svg>