<svg
                            width="57" height="52" fill="none" xmlns="http://www.w3.org/2000/svg">
                            <path
                                d="M56.342 14.968c0 7.875-6.442 14.317-14.317 14.317H14.692C6.818 29.285.375 22.843.375 14.968v-.65C.375 6.442 6.818 0 14.692 0h27.333C49.9 0 56.342 6.443 56.342 14.317v.651z"
                                fill="#6ECFDD"></path>
                            <path
                                d="M18.108 33.008l-.006 3.097-5.792-.013a6.008 6.008 0 00-5.76-4.36C3.244 31.726.544 34.394.537 37.687c-.006 3.293 2.675 5.98 5.98 5.987a6.015 6.015 0 005.786-4.328l7.426.02a1.63 1.63 0 001.64-1.627l.013-4.731h-3.274zM30.09 39.626l.02-6.586-3.274-.006-.02 6.586c-2.518.702-4.373 3.006-4.38 5.733-.006 3.293 2.675 5.98 5.981 5.987 3.306.007 6.007-2.662 6.014-5.955.013-2.733-1.83-5.043-4.341-5.759zM50.401 31.856a6.007 6.007 0 00-5.785 4.328l-5.792-.013.006-3.098-3.273-.007-.013 4.732c0 .898.729 1.633 1.633 1.633l7.426.02a6.008 6.008 0 005.76 4.36c3.305.006 6.006-2.662 6.013-5.955.013-3.306-2.669-5.994-5.975-6z"
                                fill="#B6E7EE"></path>
                            <path
                                d="M52.438 16.035c0 5.37-4.393 9.762-9.762 9.762H14.042c-5.369 0-9.762-4.393-9.762-9.762v-2.792c0-5.368 4.393-9.761 9.762-9.761h28.634c5.37 0 9.762 4.393 9.762 9.761v2.792z"
                                fill="#fff"></path>
                            <path
                                d="M49.184 15.202c0 4.295-3.514 7.81-7.81 7.81h-26.03c-4.296 0-7.81-3.515-7.81-7.81V14.09c0-4.295 3.514-7.809 7.81-7.809h26.03c4.296 0 7.81 3.514 7.81 7.81v1.112z"
                                fill="#6ECFDD"></path>
                            <path
                                d="M19.476 17.213l-.488 1.738h-1.692l2.72-8.317h1.451l2.669 8.317H22.45l-.482-1.738h-2.492zm2.115-1.366l-.853-3.059-.872 3.059h1.725zM27.76 18.95h-1.6v-8.316h2.837c.449 0 .859.065 1.223.195.364.13.677.312.937.547.254.234.45.52.592.846.137.325.209.69.209 1.093a2.6 2.6 0 01-.209 1.035 2.304 2.304 0 01-.592.813c-.26.235-.573.417-.937.54-.364.13-.774.196-1.223.196H27.76v3.052zm1.237-4.353c.227 0 .423-.032.592-.104.169-.072.306-.163.423-.28.11-.117.195-.254.247-.41a1.594 1.594 0 000-1.022 1.231 1.231 0 00-.247-.442 1.246 1.246 0 00-.423-.3 1.502 1.502 0 00-.592-.11H27.76v2.662h1.237v.006zM39.383 10.634v1.295h-1.62v5.727h1.62v1.288H34.58v-1.288h1.581v-5.727h-1.58v-1.295h4.802z"
                                fill="#fff"></path>
                        </svg>