 <svg
                            width="58" height="53" fill="none" xmlns="http://www.w3.org/2000/svg">
                            <g clip-path="url(#scalable-icon_svg__clip0)">
                                <path
                                    d="M15.894 21.349L1.683 29.324l14.211 7.982L30.1 29.324l-14.205-7.975zM.625 44.997L14.871 53V39.064L.625 31.06v13.936zM16.91 53l14.254-8.003V31.06L16.91 39.07V53z"
                                    fill="#FFD4AC"></path>
                                <path
                                    d="M38.286 0L20.005 10.268l18.281 10.268 18.281-10.268L38.287 0zM39.302 22.3v17.994l18.323-10.29v-18L39.302 22.3zM18.948 20.723l13.732 7.719a.965.965 0 01.216.16c.014.006.014.006.02.006.07.084.133.174.181.278.007.028.021.056.028.084.042.11.07.236.07.354v8.684l4.07 2.286v-18l-18.317-10.29v8.72z"
                                    fill="#FFB167"></path>
                            </g>
                            <defs>
                                <clipPath id="scalable-icon_svg__clip0">
                                    <path fill="#fff" transform="translate(.625)" d="M0 0h57v53H0z"></path>
                                </clipPath>
                            </defs>
                        </svg>