<svg width="93" height="69" fill="none" xmlns="http://www.w3.org/2000/svg">
                            <g opacity="0.18" fill="#3FBFD2">
                                <path d="M16.838 58a5 5 0 100-10 5 5 0 000 10z"></path>
                                <path opacity="0.6" d="M16.838 70.191a5 5 0 100-10 5 5 0 000 10z"></path>
                                <path opacity="0.4" d="M5 58.191a5 5 0 100-10 5 5 0 000 10z"></path>
                                <path
                                    d="M5 70.191a5 5 0 100-10 5 5 0 000 10zM40.838 58a5 5 0 100-10 5 5 0 000 10zM40.838 70.191a5 5 0 100-10 5 5 0 000 10z">
                                </path>
                                <path opacity="0.6" d="M29 58.191a5 5 0 100-10 5 5 0 000 10z"></path>
                                <path opacity="0.4" d="M29 70.191a5 5 0 100-10 5 5 0 000 10z"></path>
                                <path
                                    d="M64.838 58a5 5 0 100-10 5 5 0 000 10zM64.838 70.191a5 5 0 100-10 5 5 0 000 10z">
                                </path>
                                <path opacity="0.4" d="M53 58.191a5 5 0 100-10 5 5 0 000 10z"></path>
                                <path d="M53 70.191a5 5 0 100-10 5 5 0 000 10z"></path>
                                <path opacity="0.4" d="M64.838 34a5 5 0 100-10 5 5 0 000 10z"></path>
                                <path
                                    d="M64.838 46.191a5 5 0 100-10 5 5 0 000 10zM53 34.191a5 5 0 100-10 5 5 0 000 10z">
                                </path>
                                <path opacity="0.6" d="M53 46.191a5 5 0 100-10 5 5 0 000 10z"></path>
                                <path
                                    d="M87.838 10a5 5 0 100-10 5 5 0 000 10zM87.838 22.191a5 5 0 100-10 5 5 0 000 10z">
                                </path>
                                <path opacity="0.6" d="M76 10.191a5 5 0 100-10 5 5 0 000 10z"></path>
                                <path opacity="0.4" d="M76 22.191a5 5 0 100-10 5 5 0 000 10z"></path>
                                <path d="M87.838 58a5 5 0 100-10 5 5 0 000 10z"></path>
                                <path opacity="0.4"
                                    d="M87.838 70.191a5 5 0 100-10 5 5 0 000 10zM76 58.191a5 5 0 100-10 5 5 0 000 10z">
                                </path>
                                <path opacity="0.6" d="M76 70.191a5 5 0 100-10 5 5 0 000 10z"></path>
                            </g>
                        </svg>