<svg
                            width="37" height="48" fill="none" xmlns="http://www.w3.org/2000/svg">
                            <g clip-path="url(#confidentiality-icon_svg__clip0)">
                                <path
                                    d="M31.69 17.539h-1.448v-5.847C30.242 5.245 25.063 0 18.695 0 12.328 0 7.148 5.244 7.148 11.693v5.846H5.706c-2.388 0-4.331 1.968-4.331 4.386v20.464c0 2.418 1.943 4.386 4.331 4.386H31.69c2.388 0 4.332-1.968 4.332-4.386V21.925c-.005-2.418-1.949-4.386-4.332-4.386zM11 11.692C11 7.396 14.451 3.9 18.694 3.9c4.244 0 7.697 3.496 7.697 7.794v5.846H10.998v-5.847z"
                                    fill="#B4E6D1"></path>
                                <path
                                    d="M36.625 42.766c0 2.879-2.326 5.234-5.169 5.234H5.794C2.95 48 .625 45.645.625 42.766V21.333c0-2.878 2.326-5.233 5.169-5.233h25.662c2.843 0 5.169 2.355 5.169 5.233v21.433z"
                                    fill="#69CDA4"></path>
                                <path
                                    d="M18.121 38.16a2.022 2.022 0 01-2.884 0l-4.471-4.527a2.084 2.084 0 010-2.92 2.022 2.022 0 012.884 0l2.667 2.695a.51.51 0 00.729 0L24.26 26.1a2.022 2.022 0 012.884 0c.383.388.6.916.6 1.46 0 .545-.217 1.074-.6 1.46l-9.024 9.14z"
                                    fill="#fff"></path>
                            </g>
                            <defs>
                                <clipPath id="confidentiality-icon_svg__clip0">
                                    <path fill="#fff" transform="translate(.625)" d="M0 0h36v48H0z"></path>
                                </clipPath>
                            </defs>
                        </svg>