<svg viewBox="0 0 340 358" fill="none"
                xmlns="http://www.w3.org/2000/svg">
                <path
                    d="M153 199.577l42.301-24.422 42.302 24.422v48.846l-42.302 24.422L153 248.423v-48.846zm51.067 83.25l42.734-24.672 42.735 24.672v49.346l-42.735 24.672-42.734-24.672v-49.346zm49-83.247l42.734-24.428 42.735 24.428v48.84l-42.735 24.428-42.734-24.428v-48.84zm-6.266-112.425l42.735 24.672v49.346l-42.735 24.672-42.734-24.672v-49.346l42.734-24.672zM1 113.577l42.301-24.422 42.302 24.422v48.846L43.3 186.845 1 162.423v-48.846zm51.067 83.25l42.734-24.672 42.735 24.672v49.346l-42.735 24.672-42.734-24.672v-49.346zm49-83.247l42.734-24.428 42.735 24.428v48.84l-42.735 24.428-42.734-24.428v-48.84zM94.801 1.155l42.735 24.672v49.346L94.801 99.845 52.067 75.173V25.827L94.801 1.155z"
                    stroke="rgb(0, 130, 153)" stroke-width="2"></path>
            </svg>