<svg width="768" height="289"
                    fill="none" xmlns="http://www.w3.org/2000/svg">
                    <path
                        d="M0 0h3.655v4.734H.001V0zM194.892 0h3.655v4.734h-3.655V0zM0 23.668h3.654v4.734H0v-4.734zM194.893 23.668h3.654v4.734h-3.654v-4.734zM0 47.337h3.654v4.733H0v-4.733zM194.893 47.337h3.654v4.733h-3.654v-4.733zM0 71.004h3.654v4.734H0v-4.734zM194.893 71.004h3.654v4.734h-3.654v-4.734zM0 94.673h3.654v4.733H0v-4.733zM194.893 94.673h3.654v4.733h-3.654v-4.733zM0 118.339h3.654v4.734H0v-4.734zM194.893 118.339h3.654v4.734h-3.654v-4.734zM0 142.009h3.654v4.733H0v-4.733zM194.893 142.009h3.654v4.733h-3.654v-4.733zM0 165.676h3.654v4.733H0v-4.733zM194.893 165.676h3.654v4.733h-3.654v-4.733zM0 189.345h3.654v4.734H0v-4.734zM194.893 189.345h3.654v4.734h-3.654v-4.734zM0 213.012h3.654v4.734H0v-4.734zM194.893 213.012h3.654v4.734h-3.654v-4.734zM0 236.681h3.654v4.733H0v-4.733zM194.893 236.681h3.654v4.733h-3.654v-4.733zM0 260.348h3.654v4.734H0v-4.734zM194.893 260.348h3.654v4.734h-3.654v-4.734zM0 284.016h3.654v4.734H0v-4.734zM194.893 284.016h3.654v4.734h-3.654v-4.734zM19.49 0h3.653v4.734H19.49V0zM214.381 0h3.655v4.734h-3.655V0zM19.489 23.668h3.654v4.734H19.49v-4.734zM214.381 23.668h3.654v4.734h-3.654v-4.734zM19.489 47.337h3.654v4.733H19.49v-4.733zM214.381 47.337h3.654v4.733h-3.654v-4.733zM19.489 71.004h3.654v4.734H19.49v-4.734zM214.381 71.004h3.654v4.734h-3.654v-4.734zM19.489 94.673h3.654v4.733H19.49v-4.733zM214.381 94.673h3.654v4.733h-3.654v-4.733zM19.489 118.339h3.654v4.734H19.49v-4.734zM214.381 118.339h3.654v4.734h-3.654v-4.734zM19.489 142.009h3.654v4.733H19.49v-4.733zM214.381 142.009h3.654v4.733h-3.654v-4.733zM19.489 165.676h3.654v4.733H19.49v-4.733zM214.381 165.676h3.654v4.733h-3.654v-4.733zM19.489 189.345h3.654v4.734H19.49v-4.734zM214.381 189.345h3.654v4.734h-3.654v-4.734zM19.489 213.012h3.654v4.734H19.49v-4.734zM214.381 213.012h3.654v4.734h-3.654v-4.734zM19.489 236.681h3.654v4.733H19.49v-4.733zM214.381 236.681h3.654v4.733h-3.654v-4.733zM19.489 260.348h3.654v4.734H19.49v-4.734zM214.381 260.348h3.654v4.734h-3.654v-4.734zM19.489 284.016h3.654v4.734H19.49v-4.734zM214.381 284.016h3.654v4.734h-3.654v-4.734zM38.978 0h3.655v4.734h-3.655V0zM233.871 0h3.654v4.734h-3.654V0zM38.978 23.668h3.655v4.734h-3.655v-4.734zM233.871 23.668h3.654v4.734h-3.654v-4.734zM38.978 47.337h3.655v4.733h-3.655v-4.733zM233.871 47.337h3.654v4.733h-3.654v-4.733zM38.978 71.004h3.655v4.734h-3.655v-4.734zM233.871 71.004h3.654v4.734h-3.654v-4.734zM38.978 94.673h3.655v4.733h-3.655v-4.733zM233.871 94.673h3.654v4.733h-3.654v-4.733zM38.978 118.339h3.655v4.734h-3.655v-4.734zM233.871 118.339h3.654v4.734h-3.654v-4.734zM38.978 142.009h3.655v4.733h-3.655v-4.733zM233.871 142.009h3.654v4.733h-3.654v-4.733zM38.978 165.676h3.655v4.733h-3.655v-4.733zM233.871 165.676h3.654v4.733h-3.654v-4.733zM38.978 189.345h3.655v4.734h-3.655v-4.734zM233.871 189.345h3.654v4.734h-3.654v-4.734zM38.978 213.012h3.655v4.734h-3.655v-4.734zM233.871 213.012h3.654v4.734h-3.654v-4.734zM38.978 236.681h3.655v4.733h-3.655v-4.733zM233.871 236.681h3.654v4.733h-3.654v-4.733zM38.978 260.348h3.655v4.734h-3.655v-4.734zM233.871 260.348h3.654v4.734h-3.654v-4.734zM38.978 284.016h3.655v4.734h-3.655v-4.734zM233.871 284.016h3.654v4.734h-3.654v-4.734zM58.468 0h3.654v4.734h-3.654V0zM253.36 0h3.654v4.734h-3.654V0zM58.467 23.668h3.655v4.734h-3.655v-4.734zM253.36 23.668h3.654v4.734h-3.654v-4.734zM58.467 47.337h3.655v4.733h-3.655v-4.733zM253.36 47.337h3.654v4.733h-3.654v-4.733zM58.467 71.004h3.655v4.734h-3.655v-4.734zM253.36 71.004h3.654v4.734h-3.654v-4.734zM58.467 94.673h3.655v4.733h-3.655v-4.733zM253.36 94.673h3.654v4.733h-3.654v-4.733zM58.467 118.339h3.655v4.734h-3.655v-4.734zM253.36 118.339h3.654v4.734h-3.654v-4.734zM58.467 142.009h3.655v4.733h-3.655v-4.733zM253.36 142.009h3.654v4.733h-3.654v-4.733zM58.467 165.676h3.655v4.733h-3.655v-4.733zM253.36 165.676h3.654v4.733h-3.654v-4.733zM58.467 189.345h3.655v4.734h-3.655v-4.734zM253.36 189.345h3.654v4.734h-3.654v-4.734zM58.467 213.012h3.655v4.734h-3.655v-4.734zM253.36 213.012h3.654v4.734h-3.654v-4.734zM58.467 236.681h3.655v4.733h-3.655v-4.733zM253.36 236.681h3.654v4.733h-3.654v-4.733zM58.467 260.348h3.655v4.734h-3.655v-4.734zM253.36 260.348h3.654v4.734h-3.654v-4.734zM58.467 284.016h3.655v4.734h-3.655v-4.734zM253.36 284.016h3.654v4.734h-3.654v-4.734zM77.957 0h3.654v4.734h-3.654V0zM272.849 0h3.654v4.734h-3.654V0zM77.957 23.668h3.654v4.734h-3.654v-4.734zM272.849 23.668h3.654v4.734h-3.654v-4.734zM77.957 47.337h3.654v4.733h-3.654v-4.733zM272.849 47.337h3.654v4.733h-3.654v-4.733zM77.957 71.004h3.654v4.734h-3.654v-4.734zM272.849 71.004h3.654v4.734h-3.654v-4.734zM77.957 94.673h3.654v4.733h-3.654v-4.733zM272.849 94.673h3.654v4.733h-3.654v-4.733zM77.957 118.339h3.654v4.734h-3.654v-4.734zM272.849 118.339h3.654v4.734h-3.654v-4.734zM77.957 142.009h3.654v4.733h-3.654v-4.733zM272.849 142.009h3.654v4.733h-3.654v-4.733zM77.957 165.676h3.654v4.733h-3.654v-4.733zM272.849 165.676h3.654v4.733h-3.654v-4.733zM77.957 189.345h3.654v4.734h-3.654v-4.734zM272.849 189.345h3.654v4.734h-3.654v-4.734zM77.957 213.012h3.654v4.734h-3.654v-4.734zM272.849 213.012h3.654v4.734h-3.654v-4.734zM77.957 236.681h3.654v4.733h-3.654v-4.733zM272.849 236.681h3.654v4.733h-3.654v-4.733zM77.957 260.348h3.654v4.734h-3.654v-4.734zM272.849 260.348h3.654v4.734h-3.654v-4.734zM77.957 284.016h3.654v4.734h-3.654v-4.734zM272.849 284.016h3.654v4.734h-3.654v-4.734zM97.446 0h3.655v4.734h-3.655V0zM292.339 0h3.654v4.734h-3.654V0zM97.446 23.668h3.655v4.734h-3.655v-4.734zM292.339 23.668h3.654v4.734h-3.654v-4.734zM97.446 47.337h3.655v4.733h-3.655v-4.733zM292.339 47.337h3.654v4.733h-3.654v-4.733zM97.446 71.004h3.655v4.734h-3.655v-4.734zM292.339 71.004h3.654v4.734h-3.654v-4.734zM97.446 94.673h3.655v4.733h-3.655v-4.733zM292.339 94.673h3.654v4.733h-3.654v-4.733zM97.446 118.339h3.655v4.734h-3.655v-4.734zM292.339 118.339h3.654v4.734h-3.654v-4.734zM97.446 142.009h3.655v4.733h-3.655v-4.733zM292.339 142.009h3.654v4.733h-3.654v-4.733zM97.446 165.676h3.655v4.733h-3.655v-4.733zM292.339 165.676h3.654v4.733h-3.654v-4.733zM97.446 189.345h3.655v4.734h-3.655v-4.734zM292.339 189.345h3.654v4.734h-3.654v-4.734zM97.446 213.012h3.655v4.734h-3.655v-4.734zM292.339 213.012h3.654v4.734h-3.654v-4.734zM97.446 236.681h3.655v4.733h-3.655v-4.733zM292.339 236.681h3.654v4.733h-3.654v-4.733zM97.446 260.348h3.655v4.734h-3.655v-4.734zM292.339 260.348h3.654v4.734h-3.654v-4.734zM97.446 284.016h3.655v4.734h-3.655v-4.734zM292.339 284.016h3.654v4.734h-3.654v-4.734zM116.935 0h3.654v4.734h-3.654V0zM311.828 0h3.654v4.734h-3.654V0zM116.935 23.668h3.654v4.734h-3.654v-4.734zM311.828 23.668h3.654v4.734h-3.654v-4.734zM116.935 47.337h3.654v4.733h-3.654v-4.733zM311.828 47.337h3.654v4.733h-3.654v-4.733zM116.935 71.004h3.654v4.734h-3.654v-4.734zM311.828 71.004h3.654v4.734h-3.654v-4.734zM116.935 94.673h3.654v4.733h-3.654v-4.733zM311.828 94.673h3.654v4.733h-3.654v-4.733zM116.935 118.339h3.654v4.734h-3.654v-4.734zM311.828 118.339h3.654v4.734h-3.654v-4.734zM116.935 142.009h3.654v4.733h-3.654v-4.733zM311.828 142.009h3.654v4.733h-3.654v-4.733zM116.935 165.676h3.654v4.733h-3.654v-4.733zM311.828 165.676h3.654v4.733h-3.654v-4.733zM116.935 189.345h3.654v4.734h-3.654v-4.734zM311.828 189.345h3.654v4.734h-3.654v-4.734zM116.935 213.012h3.654v4.734h-3.654v-4.734zM311.828 213.012h3.654v4.734h-3.654v-4.734zM116.935 236.681h3.654v4.733h-3.654v-4.733zM311.828 236.681h3.654v4.733h-3.654v-4.733zM116.935 260.348h3.654v4.734h-3.654v-4.734zM311.828 260.348h3.654v4.734h-3.654v-4.734zM116.935 284.016h3.654v4.734h-3.654v-4.734zM311.828 284.016h3.654v4.734h-3.654v-4.734zM136.424 0h3.654v4.734h-3.654V0zM331.316 0h3.654v4.734h-3.654V0zM136.424 23.668h3.654v4.734h-3.654v-4.734zM331.316 23.668h3.654v4.734h-3.654v-4.734zM136.424 47.337h3.654v4.733h-3.654v-4.733zM331.316 47.337h3.654v4.733h-3.654v-4.733zM136.424 71.004h3.654v4.734h-3.654v-4.734zM331.316 71.004h3.654v4.734h-3.654v-4.734zM136.424 94.673h3.654v4.733h-3.654v-4.733zM331.316 94.673h3.654v4.733h-3.654v-4.733zM136.424 118.339h3.654v4.734h-3.654v-4.734zM331.316 118.339h3.654v4.734h-3.654v-4.734zM136.424 142.009h3.654v4.733h-3.654v-4.733zM331.316 142.009h3.654v4.733h-3.654v-4.733zM136.424 165.676h3.654v4.733h-3.654v-4.733zM331.316 165.676h3.654v4.733h-3.654v-4.733zM136.424 189.345h3.654v4.734h-3.654v-4.734zM331.316 189.345h3.654v4.734h-3.654v-4.734zM136.424 213.012h3.654v4.734h-3.654v-4.734zM331.316 213.012h3.654v4.734h-3.654v-4.734zM136.424 236.681h3.654v4.733h-3.654v-4.733zM331.316 236.681h3.654v4.733h-3.654v-4.733zM136.424 260.348h3.654v4.734h-3.654v-4.734zM331.316 260.348h3.654v4.734h-3.654v-4.734zM136.424 284.016h3.654v4.734h-3.654v-4.734zM331.316 284.016h3.654v4.734h-3.654v-4.734zM155.914 0h3.654v4.734h-3.654V0zM350.805 0h3.654v4.734h-3.654V0zM155.914 23.668h3.654v4.734h-3.654v-4.734zM350.805 23.668h3.654v4.734h-3.654v-4.734zM155.914 47.337h3.654v4.733h-3.654v-4.733zM350.805 47.337h3.654v4.733h-3.654v-4.733zM155.914 71.004h3.654v4.734h-3.654v-4.734zM350.805 71.004h3.654v4.734h-3.654v-4.734zM155.914 94.673h3.654v4.733h-3.654v-4.733zM350.805 94.673h3.654v4.733h-3.654v-4.733zM155.914 118.339h3.654v4.734h-3.654v-4.734zM350.805 118.339h3.654v4.734h-3.654v-4.734zM155.914 142.009h3.654v4.733h-3.654v-4.733zM350.805 142.009h3.654v4.733h-3.654v-4.733zM155.914 165.676h3.654v4.733h-3.654v-4.733zM350.805 165.676h3.654v4.733h-3.654v-4.733zM155.914 189.345h3.654v4.734h-3.654v-4.734zM350.805 189.345h3.654v4.734h-3.654v-4.734zM155.914 213.012h3.654v4.734h-3.654v-4.734zM350.805 213.012h3.654v4.734h-3.654v-4.734zM155.914 236.681h3.654v4.733h-3.654v-4.733zM350.805 236.681h3.654v4.733h-3.654v-4.733zM155.914 260.348h3.654v4.734h-3.654v-4.734zM350.805 260.348h3.654v4.734h-3.654v-4.734zM155.914 284.016h3.654v4.734h-3.654v-4.734zM350.805 284.016h3.654v4.734h-3.654v-4.734zM175.403 0h3.654v4.734h-3.654V0zM370.295 0h3.654v4.734h-3.654V0zM175.403 23.668h3.654v4.734h-3.654v-4.734zM370.295 23.668h3.654v4.734h-3.654v-4.734zM175.403 47.337h3.654v4.733h-3.654v-4.733zM370.295 47.337h3.654v4.733h-3.654v-4.733zM175.403 71.004h3.654v4.734h-3.654v-4.734zM370.295 71.004h3.654v4.734h-3.654v-4.734zM175.403 94.673h3.654v4.733h-3.654v-4.733zM370.295 94.673h3.654v4.733h-3.654v-4.733zM175.403 118.339h3.654v4.734h-3.654v-4.734zM370.295 118.339h3.654v4.734h-3.654v-4.734zM175.403 142.009h3.654v4.733h-3.654v-4.733zM370.295 142.009h3.654v4.733h-3.654v-4.733zM175.403 165.676h3.654v4.733h-3.654v-4.733zM370.295 165.676h3.654v4.733h-3.654v-4.733zM175.403 189.345h3.654v4.734h-3.654v-4.734zM370.295 189.345h3.654v4.734h-3.654v-4.734zM175.403 213.012h3.654v4.734h-3.654v-4.734zM370.295 213.012h3.654v4.734h-3.654v-4.734zM175.403 236.681h3.654v4.733h-3.654v-4.733zM370.295 236.681h3.654v4.733h-3.654v-4.733zM175.403 260.348h3.654v4.734h-3.654v-4.734zM370.295 260.348h3.654v4.734h-3.654v-4.734zM175.403 284.016h3.654v4.734h-3.654v-4.734zM370.295 284.016h3.654v4.734h-3.654v-4.734zM387.572 0h3.716v4.734h-3.716V0zM585.72 0h3.716v4.734h-3.716V0zM387.572 23.668h3.715v4.734h-3.715v-4.734zM585.72 23.668h3.716v4.734h-3.716v-4.734zM387.572 47.337h3.715v4.733h-3.715v-4.733zM585.72 47.337h3.716v4.733h-3.716v-4.733zM387.572 71.004h3.715v4.734h-3.715v-4.734zM585.72 71.004h3.716v4.734h-3.716v-4.734zM387.572 94.673h3.715v4.733h-3.715v-4.733zM585.72 94.673h3.716v4.733h-3.716v-4.733zM387.572 118.339h3.715v4.734h-3.715v-4.734zM585.72 118.339h3.716v4.734h-3.716v-4.734zM387.572 142.009h3.715v4.733h-3.715v-4.733zM585.72 142.009h3.716v4.733h-3.716v-4.733zM387.572 165.676h3.715v4.733h-3.715v-4.733zM585.72 165.676h3.716v4.733h-3.716v-4.733zM387.572 189.345h3.715v4.734h-3.715v-4.734zM585.72 189.345h3.716v4.734h-3.716v-4.734zM387.572 213.012h3.715v4.734h-3.715v-4.734zM585.72 213.012h3.716v4.734h-3.716v-4.734zM387.572 236.681h3.715v4.733h-3.715v-4.733zM585.72 236.681h3.716v4.733h-3.716v-4.733zM387.572 260.348h3.715v4.734h-3.715v-4.734zM585.72 260.348h3.716v4.734h-3.716v-4.734zM387.572 284.016h3.715v4.734h-3.715v-4.734zM585.72 284.016h3.716v4.734h-3.716v-4.734zM407.386 0h3.716v4.734h-3.716V0zM605.535 0h3.715v4.734h-3.715V0zM407.387 23.668h3.715v4.734h-3.715v-4.734zM605.535 23.668h3.715v4.734h-3.715v-4.734zM407.387 47.337h3.715v4.733h-3.715v-4.733zM605.535 47.337h3.715v4.733h-3.715v-4.733zM407.387 71.004h3.715v4.734h-3.715v-4.734zM605.535 71.004h3.715v4.734h-3.715v-4.734zM407.387 94.673h3.715v4.733h-3.715v-4.733zM605.535 94.673h3.715v4.733h-3.715v-4.733zM407.387 118.339h3.715v4.734h-3.715v-4.734zM605.535 118.339h3.715v4.734h-3.715v-4.734zM407.387 142.009h3.715v4.733h-3.715v-4.733zM605.535 142.009h3.715v4.733h-3.715v-4.733zM407.387 165.676h3.715v4.733h-3.715v-4.733zM605.535 165.676h3.715v4.733h-3.715v-4.733zM407.387 189.345h3.715v4.734h-3.715v-4.734zM605.535 189.345h3.715v4.734h-3.715v-4.734zM407.387 213.012h3.715v4.734h-3.715v-4.734zM605.535 213.012h3.715v4.734h-3.715v-4.734zM407.387 236.681h3.715v4.733h-3.715v-4.733zM605.535 236.681h3.715v4.733h-3.715v-4.733zM407.387 260.348h3.715v4.734h-3.715v-4.734zM605.535 260.348h3.715v4.734h-3.715v-4.734zM407.387 284.016h3.715v4.734h-3.715v-4.734zM605.535 284.016h3.715v4.734h-3.715v-4.734zM427.201 0h3.716v4.734h-3.716V0zM625.35 0h3.716v4.734h-3.716V0zM427.201 23.668h3.716v4.734h-3.716v-4.734zM625.35 23.668h3.715v4.734h-3.715v-4.734zM427.201 47.337h3.716v4.733h-3.716v-4.733zM625.35 47.337h3.715v4.733h-3.715v-4.733zM427.201 71.004h3.716v4.734h-3.716v-4.734zM625.35 71.004h3.715v4.734h-3.715v-4.734zM427.201 94.673h3.716v4.733h-3.716v-4.733zM625.35 94.673h3.715v4.733h-3.715v-4.733zM427.201 118.339h3.716v4.734h-3.716v-4.734zM625.35 118.339h3.715v4.734h-3.715v-4.734zM427.201 142.009h3.716v4.733h-3.716v-4.733zM625.35 142.009h3.715v4.733h-3.715v-4.733zM427.201 165.676h3.716v4.733h-3.716v-4.733zM625.35 165.676h3.715v4.733h-3.715v-4.733zM427.201 189.345h3.716v4.734h-3.716v-4.734zM625.35 189.345h3.715v4.734h-3.715v-4.734zM427.201 213.012h3.716v4.734h-3.716v-4.734zM625.35 213.012h3.715v4.734h-3.715v-4.734zM427.201 236.681h3.716v4.733h-3.716v-4.733zM625.35 236.681h3.715v4.733h-3.715v-4.733zM427.201 260.348h3.716v4.734h-3.716v-4.734zM625.35 260.348h3.715v4.734h-3.715v-4.734zM427.201 284.016h3.716v4.734h-3.716v-4.734zM625.35 284.016h3.715v4.734h-3.715v-4.734zM447.016 0h3.715v4.734h-3.715V0zM645.165 0h3.715v4.734h-3.715V0zM447.016 23.668h3.715v4.734h-3.715v-4.734zM645.165 23.668h3.715v4.734h-3.715v-4.734zM447.016 47.337h3.715v4.733h-3.715v-4.733zM645.165 47.337h3.715v4.733h-3.715v-4.733zM447.016 71.004h3.715v4.734h-3.715v-4.734zM645.165 71.004h3.715v4.734h-3.715v-4.734zM447.016 94.673h3.715v4.733h-3.715v-4.733zM645.165 94.673h3.715v4.733h-3.715v-4.733zM447.016 118.339h3.715v4.734h-3.715v-4.734zM645.165 118.339h3.715v4.734h-3.715v-4.734zM447.016 142.009h3.715v4.733h-3.715v-4.733zM645.165 142.009h3.715v4.733h-3.715v-4.733zM447.016 165.676h3.715v4.733h-3.715v-4.733zM645.165 165.676h3.715v4.733h-3.715v-4.733zM447.016 189.345h3.715v4.734h-3.715v-4.734zM645.165 189.345h3.715v4.734h-3.715v-4.734zM447.016 213.012h3.715v4.734h-3.715v-4.734zM645.165 213.012h3.715v4.734h-3.715v-4.734zM447.016 236.681h3.715v4.733h-3.715v-4.733zM645.165 236.681h3.715v4.733h-3.715v-4.733zM447.016 260.348h3.715v4.734h-3.715v-4.734zM645.165 260.348h3.715v4.734h-3.715v-4.734zM447.016 284.016h3.715v4.734h-3.715v-4.734zM645.165 284.016h3.715v4.734h-3.715v-4.734zM466.831 0h3.716v4.734h-3.716V0zM664.979 0h3.716v4.734h-3.716V0zM466.832 23.668h3.715v4.734h-3.715v-4.734zM664.98 23.668h3.715v4.734h-3.715v-4.734zM466.832 47.337h3.715v4.733h-3.715v-4.733zM664.98 47.337h3.715v4.733h-3.715v-4.733zM466.832 71.004h3.715v4.734h-3.715v-4.734zM664.98 71.004h3.715v4.734h-3.715v-4.734zM466.832 94.673h3.715v4.733h-3.715v-4.733zM664.98 94.673h3.715v4.733h-3.715v-4.733zM466.832 118.339h3.715v4.734h-3.715v-4.734zM664.98 118.339h3.715v4.734h-3.715v-4.734zM466.832 142.009h3.715v4.733h-3.715v-4.733zM664.98 142.009h3.715v4.733h-3.715v-4.733zM466.832 165.676h3.715v4.733h-3.715v-4.733zM664.98 165.676h3.715v4.733h-3.715v-4.733zM466.832 189.345h3.715v4.734h-3.715v-4.734zM664.98 189.345h3.715v4.734h-3.715v-4.734zM466.832 213.012h3.715v4.734h-3.715v-4.734zM664.98 213.012h3.715v4.734h-3.715v-4.734zM466.832 236.681h3.715v4.733h-3.715v-4.733zM664.98 236.681h3.715v4.733h-3.715v-4.733zM466.832 260.348h3.715v4.734h-3.715v-4.734zM664.98 260.348h3.715v4.734h-3.715v-4.734zM466.832 284.016h3.715v4.734h-3.715v-4.734zM664.98 284.016h3.715v4.734h-3.715v-4.734zM486.646 0h3.715v4.734h-3.715V0zM684.795 0h3.716v4.734h-3.716V0zM486.646 23.668h3.715v4.734h-3.715v-4.734zM684.795 23.668h3.716v4.734h-3.716v-4.734zM486.646 47.337h3.715v4.733h-3.715v-4.733zM684.795 47.337h3.716v4.733h-3.716v-4.733zM486.646 71.004h3.715v4.734h-3.715v-4.734zM684.795 71.004h3.716v4.734h-3.716v-4.734zM486.646 94.673h3.715v4.733h-3.715v-4.733zM684.795 94.673h3.716v4.733h-3.716v-4.733zM486.646 118.339h3.715v4.734h-3.715v-4.734zM684.795 118.339h3.716v4.734h-3.716v-4.734zM486.646 142.009h3.715v4.733h-3.715v-4.733zM684.795 142.009h3.716v4.733h-3.716v-4.733zM486.646 165.676h3.715v4.733h-3.715v-4.733zM684.795 165.676h3.716v4.733h-3.716v-4.733zM486.646 189.345h3.715v4.734h-3.715v-4.734zM684.795 189.345h3.716v4.734h-3.716v-4.734zM486.646 213.012h3.715v4.734h-3.715v-4.734zM684.795 213.012h3.716v4.734h-3.716v-4.734zM486.646 236.681h3.715v4.733h-3.715v-4.733zM684.795 236.681h3.716v4.733h-3.716v-4.733zM486.646 260.348h3.715v4.734h-3.715v-4.734zM684.795 260.348h3.716v4.734h-3.716v-4.734zM486.646 284.016h3.715v4.734h-3.715v-4.734zM684.795 284.016h3.716v4.734h-3.716v-4.734zM506.46 0h3.716v4.734h-3.716V0zM704.61 0h3.715v4.734h-3.715V0zM506.46 23.668h3.716v4.734h-3.716v-4.734zM704.61 23.668h3.715v4.734h-3.715v-4.734zM506.46 47.337h3.716v4.733h-3.716v-4.733zM704.61 47.337h3.715v4.733h-3.715v-4.733zM506.46 71.004h3.716v4.734h-3.716v-4.734zM704.61 71.004h3.715v4.734h-3.715v-4.734zM506.46 94.673h3.716v4.733h-3.716v-4.733zM704.61 94.673h3.715v4.733h-3.715v-4.733zM506.46 118.339h3.716v4.734h-3.716v-4.734zM704.61 118.339h3.715v4.734h-3.715v-4.734zM506.46 142.009h3.716v4.733h-3.716v-4.733zM704.61 142.009h3.715v4.733h-3.715v-4.733zM506.46 165.676h3.716v4.733h-3.716v-4.733zM704.61 165.676h3.715v4.733h-3.715v-4.733zM506.46 189.345h3.716v4.734h-3.716v-4.734zM704.61 189.345h3.715v4.734h-3.715v-4.734zM506.46 213.012h3.716v4.734h-3.716v-4.734zM704.61 213.012h3.715v4.734h-3.715v-4.734zM506.46 236.681h3.716v4.733h-3.716v-4.733zM704.61 236.681h3.715v4.733h-3.715v-4.733zM506.46 260.348h3.716v4.734h-3.716v-4.734zM704.61 260.348h3.715v4.734h-3.715v-4.734zM506.46 284.016h3.716v4.734h-3.716v-4.734zM704.61 284.016h3.715v4.734h-3.715v-4.734zM526.275 0h3.716v4.734h-3.716V0zM724.425 0h3.715v4.734h-3.715V0zM526.275 23.668h3.715v4.734h-3.715v-4.734zM724.425 23.668h3.715v4.734h-3.715v-4.734zM526.275 47.337h3.715v4.733h-3.715v-4.733zM724.425 47.337h3.715v4.733h-3.715v-4.733zM526.275 71.004h3.715v4.734h-3.715v-4.734zM724.425 71.004h3.715v4.734h-3.715v-4.734zM526.275 94.673h3.715v4.733h-3.715v-4.733zM724.425 94.673h3.715v4.733h-3.715v-4.733zM526.275 118.339h3.715v4.734h-3.715v-4.734zM724.425 118.339h3.715v4.734h-3.715v-4.734zM526.275 142.009h3.715v4.733h-3.715v-4.733zM724.425 142.009h3.715v4.733h-3.715v-4.733zM526.275 165.676h3.715v4.733h-3.715v-4.733zM724.425 165.676h3.715v4.733h-3.715v-4.733zM526.275 189.345h3.715v4.734h-3.715v-4.734zM724.425 189.345h3.715v4.734h-3.715v-4.734zM526.275 213.012h3.715v4.734h-3.715v-4.734zM724.425 213.012h3.715v4.734h-3.715v-4.734zM526.275 236.681h3.715v4.733h-3.715v-4.733zM724.425 236.681h3.715v4.733h-3.715v-4.733zM526.275 260.348h3.715v4.734h-3.715v-4.734zM724.425 260.348h3.715v4.734h-3.715v-4.734zM526.275 284.016h3.715v4.734h-3.715v-4.734zM724.425 284.016h3.715v4.734h-3.715v-4.734zM546.09 0h3.716v4.734h-3.716V0zM744.239 0h3.715v4.734h-3.715V0zM546.091 23.668h3.715v4.734h-3.715v-4.734zM744.239 23.668h3.716v4.734h-3.716v-4.734zM546.091 47.337h3.715v4.733h-3.715v-4.733zM744.239 47.337h3.716v4.733h-3.716v-4.733zM546.091 71.004h3.715v4.734h-3.715v-4.734zM744.239 71.004h3.716v4.734h-3.716v-4.734zM546.091 94.673h3.715v4.733h-3.715v-4.733zM744.239 94.673h3.716v4.733h-3.716v-4.733zM546.091 118.339h3.715v4.734h-3.715v-4.734zM744.239 118.339h3.716v4.734h-3.716v-4.734zM546.091 142.009h3.715v4.733h-3.715v-4.733zM744.239 142.009h3.716v4.733h-3.716v-4.733zM546.091 165.676h3.715v4.733h-3.715v-4.733zM744.239 165.676h3.716v4.733h-3.716v-4.733zM546.091 189.345h3.715v4.734h-3.715v-4.734zM744.239 189.345h3.716v4.734h-3.716v-4.734zM546.091 213.012h3.715v4.734h-3.715v-4.734zM744.239 213.012h3.716v4.734h-3.716v-4.734zM546.091 236.681h3.715v4.733h-3.715v-4.733zM744.239 236.681h3.716v4.733h-3.716v-4.733zM546.091 260.348h3.715v4.734h-3.715v-4.734zM744.239 260.348h3.716v4.734h-3.716v-4.734zM546.091 284.016h3.715v4.734h-3.715v-4.734zM744.239 284.016h3.716v4.734h-3.716v-4.734zM565.905 0h3.716v4.734h-3.716V0zM764.053 0h3.715v4.734h-3.715V0zM565.905 23.668h3.716v4.734h-3.716v-4.734zM764.053 23.668h3.715v4.734h-3.715v-4.734zM565.905 47.337h3.716v4.733h-3.716v-4.733zM764.053 47.337h3.715v4.733h-3.715v-4.733zM565.905 71.004h3.716v4.734h-3.716v-4.734zM764.053 71.004h3.715v4.734h-3.715v-4.734zM565.905 94.673h3.716v4.733h-3.716v-4.733zM764.053 94.673h3.715v4.733h-3.715v-4.733zM565.905 118.339h3.716v4.734h-3.716v-4.734zM764.053 118.339h3.715v4.734h-3.715v-4.734zM565.905 142.009h3.716v4.733h-3.716v-4.733zM764.053 142.009h3.715v4.733h-3.715v-4.733zM565.905 165.676h3.716v4.733h-3.716v-4.733zM764.053 165.676h3.715v4.733h-3.715v-4.733zM565.905 189.345h3.716v4.734h-3.716v-4.734zM764.053 189.345h3.715v4.734h-3.715v-4.734zM565.905 213.012h3.716v4.734h-3.716v-4.734zM764.053 213.012h3.715v4.734h-3.715v-4.734zM565.905 236.681h3.716v4.733h-3.716v-4.733zM764.053 236.681h3.715v4.733h-3.715v-4.733zM565.905 260.348h3.716v4.734h-3.716v-4.734zM764.053 260.348h3.715v4.734h-3.715v-4.734zM565.905 284.016h3.716v4.734h-3.716v-4.734zM764.053 284.016h3.715v4.734h-3.715v-4.734z"
                        fill="#133FB3"></path>
                </svg>